<?xml version="1.0" encoding="UTF-8"?>
<svg width="1200pt" height="1200pt" version="1.1" viewBox="0 0 1200 1200" xmlns="http://www.w3.org/2000/svg">
 <path d="m907.95 535.31c21.977 21.977 57.562 21.977 79.539 0l139.76-139.76c21.602-21.488 21.711-58.164 0-79.613l-139.76-139.76c-21.977-21.977-57.562-21.977-79.539 0-21.977 21.977-21.977 57.562 0 79.539l43.762 43.762h-82.949c-113.14 0-215.66 64.199-266.55 164.21-50.961-99.977-153.45-164.18-266.62-164.18h-223.09c-31.086 0-56.25 25.199-56.25 56.25s25.164 56.25 56.25 56.25h223.09c74.176 0 141.45 43.836 171.41 111.71l33.711 76.277-33.676 76.273c-29.961 67.875-97.238 111.71-171.41 111.71l-223.12 0.003906c-31.086 0-56.25 25.199-56.25 56.25s25.164 56.25 56.25 56.25h223.09c113.14 0 215.66-64.199 266.59-164.21 50.926 100.05 153.41 164.21 266.55 164.21h82.949l-43.762 43.762c-21.977 21.977-21.977 57.562 0 79.539 21.977 21.977 57.562 21.977 79.539 0l139.76-139.76c21.602-21.488 21.676-58.164 0-79.613l-139.76-139.76c-21.977-21.977-57.562-21.977-79.539 0-21.977 21.977-21.977 57.562 0 79.539l43.762 43.762h-82.949c-74.176 0-141.45-43.836-171.41-111.71l-33.633-76.242 33.676-76.273c29.961-67.875 97.238-111.71 171.41-111.71h82.949l-43.762 43.762c-21.977 21.973-21.977 57.559-0.003906 79.535z"/>
</svg>
