<?xml version="1.0" encoding="UTF-8"?>
<svg width="700pt" height="700pt" version="1.1" viewBox="0 0 700 700" xmlns="http://www.w3.org/2000/svg">
   <path d="m104.97 26.258c-4.8047 0.019532-8.6953 3.9102-8.7148 8.7148v490.05c0.019532 4.8047 3.9102 8.6953 8.7148 8.7148h489.98c4.832 0.019531 8.7656-3.8828 8.7852-8.7148v-490.05c-0.019532-4.832-3.9531-8.7344-8.7852-8.7148zm8.7852 17.5h145.78v145.84h-145.78zm163.28 0h145.86v145.84h-145.86zm163.36 0h145.84v145.84h-145.84zm-326.64 163.34h145.78v145.79h-145.78zm163.28 0h145.86v145.8h-145.86zm163.36 0h145.84l-0.003906 145.8h-145.84zm-326.64 163.3h145.78v145.84h-145.78zm163.28 0h145.86v145.84h-145.86zm163.36 0h145.84v145.84h-145.84z" />
</svg>